<svg width="100" height="100" viewBox="0 0 100 100" fill="none" xmlns="http://www.w3.org/2000/svg">
<mask id="path-1-inside-1_116_17" fill="white">
<path d="M73.8682 39.4492C79.4501 45.031 79.8551 53.9481 74.8018 60.0127C69.5786 66.281 60.1008 66.7115 54.3311 60.9424L53.7432 60.3545L59.7852 84.0557H40.2305L46.1846 60.6924C40.5181 66.468 31.1016 66.2277 25.7441 60.1045C20.4273 54.0276 20.7319 44.8688 26.4414 39.1592L50.0098 15.5908L73.8682 39.4492Z"/>
</mask>
<path d="M73.8682 39.4492C79.4501 45.031 79.8551 53.9481 74.8018 60.0127C69.5786 66.281 60.1008 66.7115 54.3311 60.9424L53.7432 60.3545L59.7852 84.0557H40.2305L46.1846 60.6924C40.5181 66.468 31.1016 66.2277 25.7441 60.1045C20.4273 54.0276 20.7319 44.8688 26.4414 39.1592L50.0098 15.5908L73.8682 39.4492Z" fill="url(#paint0_linear_116_17)"/>
<path d="M73.8682 39.4492L73.6914 39.626L73.6914 39.626L73.8682 39.4492ZM74.8018 60.0127L74.9938 60.1727V60.1727L74.8018 60.0127ZM54.3311 60.9424L54.1543 61.1192L54.1543 61.1192L54.3311 60.9424ZM53.7432 60.3545L53.9199 60.1777L53.2759 59.5337L53.5009 60.4162L53.7432 60.3545ZM59.7852 84.0557V84.3057H60.1069L60.0274 83.9939L59.7852 84.0557ZM40.2305 84.0557L39.9882 83.9939L39.9088 84.3057H40.2305V84.0557ZM46.1846 60.6924L46.4268 60.7541L46.656 59.8549L46.0061 60.5173L46.1846 60.6924ZM25.7441 60.1045L25.556 60.2691H25.556L25.7441 60.1045ZM26.4414 39.1592L26.2646 38.9824L26.2646 38.9824L26.4414 39.1592ZM50.0098 15.5908L50.1865 15.414L50.0098 15.2373L49.833 15.414L50.0098 15.5908ZM73.8682 39.4492L73.6914 39.626C79.1819 45.1164 79.5802 53.8875 74.6097 59.8527L74.8018 60.0127L74.9938 60.1727C80.1299 54.0089 79.7183 44.9457 74.0449 39.2724L73.8682 39.4492ZM74.8018 60.0127L74.6097 59.8527C69.4806 66.008 60.1736 66.4308 54.5078 60.7656L54.3311 60.9424L54.1543 61.1192C60.028 66.9922 69.6766 66.554 74.9938 60.1727L74.8018 60.0127ZM54.3311 60.9424L54.5078 60.7656L53.9199 60.1777L53.7432 60.3545L53.5664 60.5313L54.1543 61.1192L54.3311 60.9424ZM53.7432 60.3545L53.5009 60.4162L59.5429 84.1174L59.7852 84.0557L60.0274 83.9939L53.9854 60.2927L53.7432 60.3545ZM59.7852 84.0557V83.8057H40.2305V84.0557V84.3057H59.7852V84.0557ZM40.2305 84.0557L40.4727 84.1174L46.4268 60.7541L46.1846 60.6924L45.9423 60.6306L39.9882 83.9939L40.2305 84.0557ZM46.1846 60.6924L46.0061 60.5173C40.4413 66.1893 31.1936 65.9532 25.9323 59.9399L25.7441 60.1045L25.556 60.2691C31.0095 66.5022 40.5949 66.7467 46.363 60.8675L46.1846 60.6924ZM25.7441 60.1045L25.9323 59.9399C20.7021 53.962 21.0018 44.9525 26.6182 39.336L26.4414 39.1592L26.2646 38.9824C20.4621 44.7851 20.1525 54.0931 25.556 60.2691L25.7441 60.1045ZM26.4414 39.1592L26.6182 39.336L50.1865 15.7676L50.0098 15.5908L49.833 15.414L26.2646 38.9824L26.4414 39.1592ZM50.0098 15.5908L49.833 15.7676L73.6914 39.626L73.8682 39.4492L74.0449 39.2724L50.1865 15.414L50.0098 15.5908Z" fill="url(#paint1_linear_116_17)" mask="url(#path-1-inside-1_116_17)"/>
<defs>
<linearGradient id="paint0_linear_116_17" x1="50.144" y1="15.5908" x2="50.144" y2="84.0557" gradientUnits="userSpaceOnUse">
<stop stop-color="#716868"/>
<stop offset="1"/>
</linearGradient>
<linearGradient id="paint1_linear_116_17" x1="50.144" y1="15.5908" x2="50.144" y2="84.0557" gradientUnits="userSpaceOnUse">
<stop stop-color="white"/>
<stop offset="1" stop-color="#E68D3E"/>
</linearGradient>
</defs>
</svg>
