<svg width="100" height="100" viewBox="0 0 100 100" fill="none" xmlns="http://www.w3.org/2000/svg">
<mask id="path-1-inside-1_119_685" fill="white">
<path d="M73.7235 39.626C79.3054 45.2078 79.7104 54.1249 74.6571 60.1895C69.4339 66.4577 59.9561 66.8882 54.1864 61.1191L53.5985 60.5312L59.6405 84.2324H40.0858L46.0399 60.8691C40.3734 66.6447 30.9569 66.4044 25.5995 60.2812C20.2826 54.2043 20.5873 45.0456 26.2967 39.3359L49.8651 15.7676L73.7235 39.626Z"/>
</mask>
<path d="M73.7235 39.626C79.3054 45.2078 79.7104 54.1249 74.6571 60.1895C69.4339 66.4577 59.9561 66.8882 54.1864 61.1191L53.5985 60.5312L59.6405 84.2324H40.0858L46.0399 60.8691C40.3734 66.6447 30.9569 66.4044 25.5995 60.2812C20.2826 54.2043 20.5873 45.0456 26.2967 39.3359L49.8651 15.7676L73.7235 39.626Z" fill="black"/>
<path d="M73.7235 39.626L73.5467 39.8028V39.8028L73.7235 39.626ZM74.6571 60.1895L74.8491 60.3495H74.8491L74.6571 60.1895ZM54.1864 61.1191L54.0096 61.2959L54.0096 61.2959L54.1864 61.1191ZM53.5985 60.5312L53.7753 60.3545L53.1312 59.7105L53.3562 60.593L53.5985 60.5312ZM59.6405 84.2324V84.4824H59.9622L59.8827 84.1707L59.6405 84.2324ZM40.0858 84.2324L39.8435 84.1707L39.7641 84.4824H40.0858V84.2324ZM46.0399 60.8691L46.2821 60.9309L46.5113 60.0317L45.8614 60.6941L46.0399 60.8691ZM25.5995 60.2812L25.4113 60.4459H25.4113L25.5995 60.2812ZM26.2967 39.3359L26.1199 39.1592L26.1199 39.1592L26.2967 39.3359ZM49.8651 15.7676L50.0419 15.5908L49.8651 15.414L49.6883 15.5908L49.8651 15.7676ZM73.7235 39.626L73.5467 39.8028C79.0372 45.2931 79.4355 54.0642 74.465 60.0294L74.6571 60.1895L74.8491 60.3495C79.9852 54.1856 79.5736 45.1224 73.9003 39.4492L73.7235 39.626ZM74.6571 60.1895L74.465 60.0294C69.336 66.1848 60.0289 66.6075 54.3631 60.9424L54.1864 61.1191L54.0096 61.2959C59.8833 67.169 69.5319 66.7307 74.8491 60.3495L74.6571 60.1895ZM54.1864 61.1191L54.3632 60.9424L53.7753 60.3545L53.5985 60.5312L53.4217 60.708L54.0096 61.2959L54.1864 61.1191ZM53.5985 60.5312L53.3562 60.593L59.3982 84.2942L59.6405 84.2324L59.8827 84.1707L53.8407 60.4695L53.5985 60.5312ZM59.6405 84.2324V83.9824H40.0858V84.2324V84.4824H59.6405V84.2324ZM40.0858 84.2324L40.328 84.2942L46.2821 60.9309L46.0399 60.8691L45.7976 60.8074L39.8435 84.1707L40.0858 84.2324ZM46.0399 60.8691L45.8614 60.6941C40.2966 66.366 31.0489 66.13 25.7876 60.1166L25.5995 60.2812L25.4113 60.4459C30.8648 66.6789 40.4502 66.9235 46.2183 61.0442L46.0399 60.8691ZM25.5995 60.2812L25.7876 60.1166C20.5574 54.1387 20.8571 45.1293 26.4735 39.5127L26.2967 39.3359L26.1199 39.1592C20.3174 44.9619 20.0078 54.2699 25.4113 60.4459L25.5995 60.2812ZM26.2967 39.3359L26.4735 39.5127L50.0419 15.9444L49.8651 15.7676L49.6883 15.5908L26.1199 39.1592L26.2967 39.3359ZM49.8651 15.7676L49.6883 15.9444L73.5467 39.8028L73.7235 39.626L73.9003 39.4492L50.0419 15.5908L49.8651 15.7676Z" fill="url(#paint0_linear_119_685)" mask="url(#path-1-inside-1_119_685)"/>
<defs>
<linearGradient id="paint0_linear_119_685" x1="49.9995" y1="15.7676" x2="49.9995" y2="84.2324" gradientUnits="userSpaceOnUse">
<stop stop-color="white"/>
<stop offset="1" stop-color="#E68D3E"/>
</linearGradient>
</defs>
</svg>
