<svg width="100" height="100" viewBox="0 0 100 100" fill="none" xmlns="http://www.w3.org/2000/svg">
<mask id="path-1-inside-1_119_686" fill="white">
<path d="M50.001 15.9326C58.4685 15.9326 65.333 22.7971 65.333 31.2646C65.333 34.5975 64.268 37.681 62.4619 40.1963C63.4364 39.9609 64.4542 39.8359 65.501 39.8359C72.6239 39.8361 78.3984 45.6104 78.3984 52.7334C78.3983 59.8563 72.6238 65.6307 65.501 65.6309C59.9 65.6309 55.1331 62.0602 53.3516 57.0713H53.1416L53.4307 59.1719L59.7764 84.0674H40.2217L46.5674 59.1719L46.8564 57.0713H46.6494C44.8679 62.0602 40.101 65.6309 34.5 65.6309C27.3771 65.6308 21.6026 59.8563 21.6025 52.7334C21.6025 45.6104 27.377 39.836 34.5 39.8359C35.5468 39.8359 36.5645 39.9609 37.5391 40.1963C35.7332 37.6811 34.669 34.5973 34.6689 31.2646C34.6689 22.7971 41.5335 15.9327 50.001 15.9326Z"/>
</mask>
<path d="M50.001 15.9326C58.4685 15.9326 65.333 22.7971 65.333 31.2646C65.333 34.5975 64.268 37.681 62.4619 40.1963C63.4364 39.9609 64.4542 39.8359 65.501 39.8359C72.6239 39.8361 78.3984 45.6104 78.3984 52.7334C78.3983 59.8563 72.6238 65.6307 65.501 65.6309C59.9 65.6309 55.1331 62.0602 53.3516 57.0713H53.1416L53.4307 59.1719L59.7764 84.0674H40.2217L46.5674 59.1719L46.8564 57.0713H46.6494C44.8679 62.0602 40.101 65.6309 34.5 65.6309C27.3771 65.6308 21.6026 59.8563 21.6025 52.7334C21.6025 45.6104 27.377 39.836 34.5 39.8359C35.5468 39.8359 36.5645 39.9609 37.5391 40.1963C35.7332 37.6811 34.669 34.5973 34.6689 31.2646C34.6689 22.7971 41.5335 15.9327 50.001 15.9326Z" fill="black"/>
<path d="M50.001 15.9326V15.6826H50.001L50.001 15.9326ZM65.333 31.2646L65.583 31.2647V31.2646H65.333ZM62.4619 40.1963L62.2588 40.0505L61.8661 40.5974L62.5206 40.4393L62.4619 40.1963ZM65.501 39.8359L65.501 39.5859H65.501V39.8359ZM78.3984 52.7334L78.6484 52.7334V52.7334H78.3984ZM65.501 65.6309V65.8809H65.501L65.501 65.6309ZM53.3516 57.0713L53.587 56.9872L53.5277 56.8213H53.3516V57.0713ZM53.1416 57.0713V56.8213H52.8548L52.8939 57.1054L53.1416 57.0713ZM53.4307 59.1719L53.183 59.206L53.1849 59.2199L53.1884 59.2336L53.4307 59.1719ZM59.7764 84.0674V84.3174H60.0981L60.0186 84.0056L59.7764 84.0674ZM40.2217 84.0674L39.9794 84.0056L39.9 84.3174H40.2217V84.0674ZM46.5674 59.1719L46.8096 59.2336L46.8131 59.2199L46.815 59.206L46.5674 59.1719ZM46.8564 57.0713L47.1041 57.1054L47.1432 56.8213H46.8564V57.0713ZM46.6494 57.0713V56.8213H46.4732L46.414 56.9872L46.6494 57.0713ZM34.5 65.6309L34.5 65.8809H34.5V65.6309ZM21.6025 52.7334H21.3525V52.7334L21.6025 52.7334ZM34.5 39.8359V39.5859H34.5L34.5 39.8359ZM37.5391 40.1963L37.4804 40.4393L38.1348 40.5974L37.7421 40.0505L37.5391 40.1963ZM34.6689 31.2646H34.4189V31.2647L34.6689 31.2646ZM50.001 15.9326V16.1826C58.3305 16.1826 65.083 22.9352 65.083 31.2646H65.333H65.583C65.583 22.659 58.6066 15.6826 50.001 15.6826V15.9326ZM65.333 31.2646L65.083 31.2646C65.083 34.5434 64.0355 37.5762 62.2588 40.0505L62.4619 40.1963L62.665 40.3421C64.5006 37.7858 65.583 34.6516 65.583 31.2647L65.333 31.2646ZM62.4619 40.1963L62.5206 40.4393C63.476 40.2085 64.4742 40.0859 65.501 40.0859V39.8359V39.5859C64.4343 39.5859 63.3967 39.7133 62.4032 39.9533L62.4619 40.1963ZM65.501 39.8359L65.501 40.0859C72.4858 40.0861 78.1484 45.7485 78.1484 52.7334H78.3984H78.6484C78.6484 45.4724 72.7619 39.5861 65.501 39.5859L65.501 39.8359ZM78.3984 52.7334L78.1484 52.7334C78.1483 59.7182 72.4858 65.3807 65.501 65.3809L65.501 65.6309L65.501 65.8809C72.7619 65.8807 78.6483 59.9943 78.6484 52.7334L78.3984 52.7334ZM65.501 65.6309V65.3809C60.009 65.3809 55.3341 61.8798 53.587 56.9872L53.3516 57.0713L53.1161 57.1554C54.9321 62.2406 59.791 65.8809 65.501 65.8809V65.6309ZM53.3516 57.0713V56.8213H53.1416V57.0713V57.3213H53.3516V57.0713ZM53.1416 57.0713L52.8939 57.1054L53.183 59.206L53.4307 59.1719L53.6783 59.1378L53.3893 57.0372L53.1416 57.0713ZM53.4307 59.1719L53.1884 59.2336L59.5341 84.1291L59.7764 84.0674L60.0186 84.0056L53.6729 59.1101L53.4307 59.1719ZM59.7764 84.0674V83.8174H40.2217V84.0674V84.3174H59.7764V84.0674ZM40.2217 84.0674L40.4639 84.1291L46.8096 59.2336L46.5674 59.1719L46.3251 59.1101L39.9794 84.0056L40.2217 84.0674ZM46.5674 59.1719L46.815 59.206L47.1041 57.1054L46.8564 57.0713L46.6088 57.0372L46.3197 59.1378L46.5674 59.1719ZM46.8564 57.0713V56.8213H46.6494V57.0713V57.3213H46.8564V57.0713ZM46.6494 57.0713L46.414 56.9872C44.6668 61.8798 39.992 65.3809 34.5 65.3809V65.6309V65.8809C40.21 65.8809 45.0689 62.2406 46.8849 57.1554L46.6494 57.0713ZM34.5 65.6309L34.5 65.3809C27.5151 65.3808 21.8526 59.7183 21.8525 52.7334L21.6025 52.7334L21.3525 52.7334C21.3526 59.9944 27.239 65.8808 34.5 65.8809L34.5 65.6309ZM21.6025 52.7334H21.8525C21.8525 45.7485 27.5151 40.086 34.5 40.0859L34.5 39.8359L34.5 39.5859C27.2389 39.586 21.3525 45.4723 21.3525 52.7334H21.6025ZM34.5 39.8359V40.0859C35.5269 40.0859 36.5249 40.2085 37.4804 40.4393L37.5391 40.1963L37.5978 39.9533C36.6042 39.7133 35.5668 39.5859 34.5 39.5859V39.8359ZM37.5391 40.1963L37.7421 40.0505C35.9657 37.5763 34.919 34.5432 34.9189 31.2646L34.6689 31.2646L34.4189 31.2647C34.419 34.6514 35.5006 37.7859 37.336 40.3421L37.5391 40.1963ZM34.6689 31.2646H34.9189C34.9189 22.9352 41.6715 16.1827 50.001 16.1826L50.001 15.9326L50.001 15.6826C41.3954 15.6827 34.4189 22.6591 34.4189 31.2646H34.6689Z" fill="url(#paint0_linear_119_686)" mask="url(#path-1-inside-1_119_686)"/>
<defs>
<linearGradient id="paint0_linear_119_686" x1="50.0005" y1="15.9326" x2="50.0005" y2="84.0674" gradientUnits="userSpaceOnUse">
<stop stop-color="white"/>
<stop offset="1" stop-color="#E68D3E"/>
</linearGradient>
</defs>
</svg>
