<svg width="100" height="100" viewBox="0 0 100 100" fill="none" xmlns="http://www.w3.org/2000/svg">
<mask id="path-1-inside-1_116_13" fill="white">
<path d="M50 15.9326C58.4676 15.9326 65.332 22.7971 65.332 31.2646C65.332 34.5975 64.2671 37.681 62.4609 40.1963C63.4354 39.9609 64.4532 39.8359 65.5 39.8359C72.6229 39.8361 78.3975 45.6104 78.3975 52.7334C78.3974 59.8563 72.6228 65.6307 65.5 65.6309C59.899 65.6309 55.1321 62.0602 53.3506 57.0713H53.1406L53.4297 59.1719L59.7754 84.0674H40.2207L46.5664 59.1719L46.8555 57.0713H46.6484C44.8669 62.0602 40.1 65.6309 34.499 65.6309C27.3761 65.6308 21.6017 59.8563 21.6016 52.7334C21.6016 45.6104 27.376 39.836 34.499 39.8359C35.5458 39.8359 36.5636 39.9609 37.5381 40.1963C35.7322 37.6811 34.668 34.5973 34.668 31.2646C34.668 22.7971 41.5325 15.9327 50 15.9326Z"/>
</mask>
<path d="M50 15.9326C58.4676 15.9326 65.332 22.7971 65.332 31.2646C65.332 34.5975 64.2671 37.681 62.4609 40.1963C63.4354 39.9609 64.4532 39.8359 65.5 39.8359C72.6229 39.8361 78.3975 45.6104 78.3975 52.7334C78.3974 59.8563 72.6228 65.6307 65.5 65.6309C59.899 65.6309 55.1321 62.0602 53.3506 57.0713H53.1406L53.4297 59.1719L59.7754 84.0674H40.2207L46.5664 59.1719L46.8555 57.0713H46.6484C44.8669 62.0602 40.1 65.6309 34.499 65.6309C27.3761 65.6308 21.6017 59.8563 21.6016 52.7334C21.6016 45.6104 27.376 39.836 34.499 39.8359C35.5458 39.8359 36.5636 39.9609 37.5381 40.1963C35.7322 37.6811 34.668 34.5973 34.668 31.2646C34.668 22.7971 41.5325 15.9327 50 15.9326Z" fill="url(#paint0_linear_116_13)"/>
<path d="M50 15.9326V15.6826H50L50 15.9326ZM65.332 31.2646L65.582 31.2647V31.2646H65.332ZM62.4609 40.1963L62.2579 40.0505L61.8652 40.5974L62.5196 40.4393L62.4609 40.1963ZM65.5 39.8359L65.5 39.5859H65.5V39.8359ZM78.3975 52.7334L78.6475 52.7334V52.7334H78.3975ZM65.5 65.6309V65.8809H65.5L65.5 65.6309ZM53.3506 57.0713L53.586 56.9872L53.5268 56.8213H53.3506V57.0713ZM53.1406 57.0713V56.8213H52.8539L52.893 57.1054L53.1406 57.0713ZM53.4297 59.1719L53.182 59.206L53.1839 59.2199L53.1874 59.2336L53.4297 59.1719ZM59.7754 84.0674V84.3174H60.0971L60.0176 84.0056L59.7754 84.0674ZM40.2207 84.0674L39.9784 84.0056L39.899 84.3174H40.2207V84.0674ZM46.5664 59.1719L46.8087 59.2336L46.8121 59.2199L46.8141 59.206L46.5664 59.1719ZM46.8555 57.0713L47.1031 57.1054L47.1422 56.8213H46.8555V57.0713ZM46.6484 57.0713V56.8213H46.4722L46.413 56.9872L46.6484 57.0713ZM34.499 65.6309L34.499 65.8809H34.499V65.6309ZM21.6016 52.7334H21.3516V52.7334L21.6016 52.7334ZM34.499 39.8359V39.5859H34.499L34.499 39.8359ZM37.5381 40.1963L37.4794 40.4393L38.1338 40.5974L37.7412 40.0505L37.5381 40.1963ZM34.668 31.2646H34.418V31.2647L34.668 31.2646ZM50 15.9326V16.1826C58.3295 16.1826 65.082 22.9352 65.082 31.2646H65.332H65.582C65.582 22.659 58.6056 15.6826 50 15.6826V15.9326ZM65.332 31.2646L65.082 31.2646C65.082 34.5434 64.0345 37.5762 62.2579 40.0505L62.4609 40.1963L62.664 40.3421C64.4996 37.7858 65.582 34.6516 65.582 31.2647L65.332 31.2646ZM62.4609 40.1963L62.5196 40.4393C63.4751 40.2085 64.4732 40.0859 65.5 40.0859V39.8359V39.5859C64.4333 39.5859 63.3957 39.7133 62.4022 39.9533L62.4609 40.1963ZM65.5 39.8359L65.5 40.0859C72.4848 40.0861 78.1475 45.7485 78.1475 52.7334H78.3975H78.6475C78.6475 45.4724 72.761 39.5861 65.5 39.5859L65.5 39.8359ZM78.3975 52.7334L78.1475 52.7334C78.1474 59.7182 72.4848 65.3807 65.5 65.3809L65.5 65.6309L65.5 65.8809C72.7609 65.8807 78.6474 59.9943 78.6475 52.7334L78.3975 52.7334ZM65.5 65.6309V65.3809C60.008 65.3809 55.3332 61.8798 53.586 56.9872L53.3506 57.0713L53.1151 57.1554C54.9311 62.2406 59.79 65.8809 65.5 65.8809V65.6309ZM53.3506 57.0713V56.8213H53.1406V57.0713V57.3213H53.3506V57.0713ZM53.1406 57.0713L52.893 57.1054L53.182 59.206L53.4297 59.1719L53.6774 59.1378L53.3883 57.0372L53.1406 57.0713ZM53.4297 59.1719L53.1874 59.2336L59.5331 84.1291L59.7754 84.0674L60.0176 84.0056L53.6719 59.1101L53.4297 59.1719ZM59.7754 84.0674V83.8174H40.2207V84.0674V84.3174H59.7754V84.0674ZM40.2207 84.0674L40.463 84.1291L46.8087 59.2336L46.5664 59.1719L46.3242 59.1101L39.9784 84.0056L40.2207 84.0674ZM46.5664 59.1719L46.8141 59.206L47.1031 57.1054L46.8555 57.0713L46.6078 57.0372L46.3187 59.1378L46.5664 59.1719ZM46.8555 57.0713V56.8213H46.6484V57.0713V57.3213H46.8555V57.0713ZM46.6484 57.0713L46.413 56.9872C44.6659 61.8798 39.9911 65.3809 34.499 65.3809V65.6309V65.8809C40.209 65.8809 45.0679 62.2406 46.8839 57.1554L46.6484 57.0713ZM34.499 65.6309L34.499 65.3809C27.5142 65.3808 21.8517 59.7183 21.8516 52.7334L21.6016 52.7334L21.3516 52.7334C21.3517 59.9944 27.238 65.8808 34.499 65.8809L34.499 65.6309ZM21.6016 52.7334H21.8516C21.8516 45.7485 27.5141 40.086 34.499 40.0859L34.499 39.8359L34.499 39.5859C27.238 39.586 21.3516 45.4723 21.3516 52.7334H21.6016ZM34.499 39.8359V40.0859C35.5259 40.0859 36.5239 40.2085 37.4794 40.4393L37.5381 40.1963L37.5968 39.9533C36.6032 39.7133 35.5658 39.5859 34.499 39.5859V39.8359ZM37.5381 40.1963L37.7412 40.0505C35.9648 37.5763 34.918 34.5432 34.918 31.2646L34.668 31.2646L34.418 31.2647C34.418 34.6514 35.4997 37.7859 37.335 40.3421L37.5381 40.1963ZM34.668 31.2646H34.918C34.918 22.9352 41.6706 16.1827 50 16.1826L50 15.9326L50 15.6826C41.3944 15.6827 34.418 22.6591 34.418 31.2646H34.668Z" fill="url(#paint1_linear_116_13)" mask="url(#path-1-inside-1_116_13)"/>
<defs>
<linearGradient id="paint0_linear_116_13" x1="49.9995" y1="15.9326" x2="49.9995" y2="84.0674" gradientUnits="userSpaceOnUse">
<stop stop-color="#716868"/>
<stop offset="1"/>
</linearGradient>
<linearGradient id="paint1_linear_116_13" x1="49.9995" y1="15.9326" x2="49.9995" y2="84.0674" gradientUnits="userSpaceOnUse">
<stop stop-color="white"/>
<stop offset="1" stop-color="#E68D3E"/>
</linearGradient>
</defs>
</svg>
