<svg width="24" height="24" viewBox="0 0 24 24" fill="none" xmlns="http://www.w3.org/2000/svg">
<path d="M17 2C17.7778 1.99959 18.5253 2.30179 19.0842 2.84265C19.6432 3.38351 19.9698 4.12061 19.995 4.898C19.9983 4.93133 20 4.96533 20 5V19C20 19.7956 19.6839 20.5587 19.1213 21.1213C18.5587 21.6839 17.7956 22 17 22H7C6.20435 22 5.44129 21.6839 4.87868 21.1213C4.31607 20.5587 4 19.7956 4 19V5C4 4.20435 4.31607 3.44129 4.87868 2.87868C5.44129 2.31607 6.20435 2 7 2H17ZM16.01 17H16C15.7348 17 15.4804 17.1054 15.2929 17.2929C15.1054 17.4804 15 17.7348 15 18C15 18.2652 15.1054 18.5196 15.2929 18.7071C15.4804 18.8946 15.7348 19 16 19H16.01C16.2752 19 16.5296 18.8946 16.7171 18.7071C16.9046 18.5196 17.01 18.2652 17.01 18C17.01 17.7348 16.9046 17.4804 16.7171 17.2929C16.5296 17.1054 16.2752 17 16.01 17ZM12.8 7.4C12.7069 7.2758 12.5861 7.175 12.4472 7.10557C12.3084 7.03615 12.1552 7 12 7C11.8448 7 11.6916 7.03615 11.5528 7.10557C11.4139 7.175 11.2931 7.2758 11.2 7.4L8.2 11.4C8.07018 11.5731 8 11.7836 8 12C8 12.2164 8.07018 12.4269 8.2 12.6L11.188 16.584L11.2 16.6C11.2047 16.6067 11.2103 16.6133 11.217 16.62C11.2393 16.6515 11.2651 16.6804 11.294 16.706L11.31 16.724L11.328 16.74C11.3447 16.756 11.362 16.7703 11.38 16.783L11.405 16.803C11.431 16.8245 11.4592 16.8432 11.489 16.859L11.545 16.889C11.5557 16.8957 11.5667 16.9017 11.578 16.907L11.621 16.924C11.6447 16.9358 11.6695 16.9451 11.695 16.952C11.7932 16.9851 11.8964 17.001 12 16.999H12.047C12.0788 16.9972 12.1105 16.9938 12.142 16.989C12.1973 16.9812 12.2518 16.9689 12.305 16.952L12.33 16.944L12.379 16.924C12.4058 16.9163 12.4314 16.9048 12.455 16.89C12.483 16.8772 12.5098 16.8618 12.535 16.844C12.5644 16.8255 12.5927 16.8055 12.62 16.784C12.6516 16.7614 12.6805 16.7353 12.706 16.706L12.724 16.69L12.74 16.672L12.783 16.62L12.8 16.6L12.809 16.588L15.8 12.6C15.9298 12.4269 16 12.2164 16 12C16 11.7836 15.9298 11.5731 15.8 11.4L12.8 7.4ZM8.01 5H8C7.73478 5 7.48043 5.10536 7.29289 5.29289C7.10536 5.48043 7 5.73478 7 6C7 6.26522 7.10536 6.51957 7.29289 6.70711C7.48043 6.89464 7.73478 7 8 7H8.01C8.27522 7 8.52957 6.89464 8.71711 6.70711C8.90464 6.51957 9.01 6.26522 9.01 6C9.01 5.73478 8.90464 5.48043 8.71711 5.29289C8.52957 5.10536 8.27522 5 8.01 5Z" fill="#787878"/>
</svg>
